# xmcd
# Track frame offsets:
# 150
# 21021
# 34887
# 48850
# 63980
# 78624
# 93268
#
# Disc length: 1454 seconds
# Revision: 0
# Processed by: cddbd v1.4PL0 Copyright (c) Steve Scherf et al.
# Submitted via: VisiTrax 2.9.5.181 - For more info visit www.synapsa.com
#
DISCID=4e05ac07
DTITLE=Hill Blues Unit - Rhythm and Blues - Boogie Woogie
DYEAR=1900
DGENRE=Blues
TTITLE0=Everything I do is wrong
TTITLE1=Time will tell
TTITLE2=I went to the Mardi Grass
TTITLE3=I know your wig is gone
TTITLE4=Whole lotta lovin
TTITLE5=Need your love so bad
TTITLE6=The king´s Highway
EXTD=
EXTT0=
EXTT1=
EXTT2=
EXTT3=
EXTT4=
EXTT5=
EXTT6=
PLAYORDER=
